<?xml version="1.0" standalone="no"?>
<!DOCTYPE svg PUBLIC "-//W3C//DTD SVG 20010904//EN"
 "http://www.w3.org/TR/2001/REC-SVG-20010904/DTD/svg10.dtd">
<svg version="1.0" xmlns="http://www.w3.org/2000/svg"
 width="1803.000000pt" height="1803.000000pt" viewBox="0 0 1803.000000 1803.000000"
 preserveAspectRatio="xMidYMid meet">
<metadata>
Created by potrace 1.11, written by Peter Selinger 2001-2013
</metadata>
<g transform="translate(0.000000,1803.000000) scale(0.100000,-0.100000)"
fill="#000000" stroke="none">
<path d="M4930 13402 c-284 -23 -565 -177 -738 -405 -21 -29 -48 -68 -58 -87
-10 -19 -23 -38 -27 -41 -5 -3 -9 -13 -11 -21 -1 -8 -9 -27 -19 -41 -9 -15
-17 -32 -17 -40 0 -7 -4 -17 -9 -23 -13 -14 -57 -139 -80 -224 -23 -83 -49
-225 -57 -310 -8 -73 -8 -403 0 -460 3 -25 10 -88 16 -140 31 -283 131 -619
242 -820 81 -147 241 -350 269 -342 6 1 8 -2 5 -7 -3 -5 5 -16 18 -24 13 -9
29 -22 37 -29 21 -20 118 -82 166 -107 176 -89 347 -112 547 -75 80 15 222 80
324 148 78 53 208 172 204 187 -1 6 2 8 7 5 5 -3 16 5 25 19 9 13 24 32 35 42
31 30 148 208 187 285 72 142 134 333 159 488 30 188 21 487 -20 675 -31 142
-99 371 -116 390 -5 5 -9 15 -9 22 0 19 -120 267 -131 271 -5 2 -9 8 -9 14 0
13 -115 188 -159 243 -188 233 -412 377 -626 401 -62 7 -117 9 -155 6z"/>
<path d="M1573 12199 c-334 -61 -540 -294 -592 -669 -9 -66 -7 -291 4 -365 5
-40 27 -162 40 -220 18 -88 85 -293 116 -359 11 -22 19 -44 19 -49 0 -19 117
-242 178 -337 224 -353 510 -603 884 -774 56 -26 303 -111 349 -120 93 -19
189 -38 214 -42 17 -3 91 -7 165 -9 152 -4 224 5 334 41 68 22 166 72 166 84
0 6 6 10 14 10 25 0 140 133 177 205 121 231 146 542 67 820 -65 232 -160 421
-331 665 -32 47 -64 90 -71 95 -7 6 -18 19 -26 31 -72 104 -370 415 -485 506
-315 249 -685 434 -970 483 -60 10 -204 13 -252 4z"/>
<path d="M7844 11839 c-72 -21 -174 -60 -234 -89 -61 -30 -205 -126 -235 -156
-13 -13 -27 -24 -31 -24 -7 0 -112 -107 -153 -155 -124 -148 -242 -408 -275
-610 -22 -133 -23 -401 -1 -513 1 -9 6 -39 9 -65 6 -44 18 -111 30 -162 22
-98 32 -134 66 -235 21 -63 49 -137 61 -165 12 -27 20 -50 18 -50 -2 0 5 -13
16 -30 11 -16 33 -55 49 -86 76 -152 243 -338 381 -426 109 -70 271 -125 405
-139 233 -24 380 14 550 139 105 78 239 227 317 356 145 238 203 500 205 933
0 130 -8 300 -17 348 -2 10 -7 40 -11 67 -42 292 -180 567 -381 758 -179 170
-270 234 -403 281 -121 44 -266 53 -366 23z"/>
<path d="M4930 9697 c-3 -2 -25 -7 -50 -10 -88 -10 -235 -50 -305 -82 -16 -7
-60 -27 -96 -43 -219 -99 -513 -339 -689 -560 -14 -18 -35 -44 -48 -59 -45
-55 -174 -244 -212 -310 -51 -90 -140 -267 -140 -280 0 -6 -7 -16 -15 -23 -8
-7 -15 -22 -15 -34 0 -12 -4 -26 -9 -31 -26 -29 -152 -397 -202 -595 -51 -196
-73 -309 -100 -500 -38 -263 -45 -740 -15 -920 3 -14 7 -47 11 -75 5 -43 18
-124 30 -190 13 -70 45 -223 49 -235 3 -8 8 -30 11 -47 14 -85 18 -103 37
-168 11 -38 38 -104 61 -145 22 -41 54 -100 70 -130 51 -93 125 -197 190 -267
70 -75 216 -195 229 -187 4 3 8 0 8 -6 0 -17 197 -107 285 -129 117 -30 197
-39 315 -35 125 3 173 12 290 51 115 39 303 151 425 255 22 18 127 119 233
223 221 217 196 194 287 267 142 113 382 254 520 303 28 10 55 22 60 25 14 10
219 77 275 90 25 6 52 13 60 15 31 10 407 84 454 90 27 4 58 9 70 11 12 2 50
9 86 15 36 5 76 12 90 14 14 2 42 7 64 10 21 4 48 9 60 11 11 2 48 9 81 15 33
5 69 12 80 14 11 2 61 13 110 24 104 25 269 60 305 66 41 7 233 43 263 50 43
9 156 56 164 68 4 7 0 8 -13 3 -10 -4 -39 -11 -64 -15 -39 -6 -60 -4 -125 12
-28 7 -82 49 -100 79 -30 49 -28 213 4 283 12 28 16 43 8 35 -7 -8 -42 -48
-78 -89 -260 -301 -467 -400 -587 -284 -63 61 -77 136 -46 257 36 145 99 276
285 595 163 281 204 326 277 300 28 -10 72 -64 72 -89 0 -12 -140 -279 -217
-415 -12 -22 -27 -49 -32 -60 -5 -11 -33 -72 -63 -135 -71 -150 -87 -198 -68
-210 25 -16 89 31 219 160 69 69 144 145 166 170 22 25 73 82 112 126 40 45
70 84 66 88 -3 3 -1 6 5 6 16 0 86 95 146 199 89 154 136 191 252 194 55 2 59
0 73 -27 13 -28 12 -34 -28 -110 -23 -45 -53 -99 -67 -121 -13 -22 -30 -51
-37 -65 -6 -14 -14 -27 -17 -30 -19 -19 -132 -249 -184 -375 -53 -132 -71
-230 -46 -260 40 -48 141 20 333 224 54 56 80 131 86 239 2 26 20 10 27 -23 4
-23 21 -50 46 -74 43 -43 136 -77 357 -131 172 -43 204 -61 181 -105 -31 -58
-209 -122 -370 -132 -81 -5 -88 -4 -115 19 -20 18 -30 37 -34 69 l-6 44 -45 3
c-37 2 -50 -2 -73 -23 -47 -45 -72 -125 -61 -197 6 -38 51 -96 90 -116 74 -39
247 -44 374 -13 128 32 335 126 347 157 3 8 9 12 13 9 11 -7 110 101 110 119
0 9 4 16 9 16 9 0 17 24 26 83 12 73 -53 166 -146 212 -68 32 -225 77 -359
101 -51 10 -105 26 -117 36 -49 40 215 228 397 282 58 17 150 31 150 23 0 -3
-7 -18 -15 -33 -21 -40 -19 -49 13 -74 35 -28 95 -24 173 12 96 44 135 95 143
189 8 93 -41 136 -166 146 -130 11 -330 -39 -521 -132 -131 -63 -174 -89 -230
-137 -27 -24 -54 -47 -61 -53 -27 -23 -76 -94 -91 -133 -10 -23 -20 -42 -24
-42 -4 0 -8 48 -9 108 -1 59 -4 118 -7 132 -3 14 -7 44 -10 67 -12 107 -56
239 -117 352 -36 68 -86 149 -98 161 -3 3 -21 28 -40 55 -35 51 -57 77 -145
173 -55 60 -160 163 -215 211 l-35 30 -10 -22 c-5 -12 -12 -24 -16 -27 -3 -3
-12 -16 -19 -30 -7 -14 -39 -65 -71 -114 -33 -48 -59 -92 -59 -97 0 -5 -4 -9
-10 -9 -5 0 -10 -4 -10 -8 0 -5 -31 -57 -70 -115 -38 -58 -70 -110 -70 -116 0
-5 -4 -11 -8 -13 -9 -3 -82 -114 -82 -124 0 -2 -5 -10 -10 -17 -42 -50 -520
-828 -520 -846 0 -5 -3 -11 -7 -13 -6 -2 -109 -168 -168 -270 -5 -9 -38 -63
-72 -120 l-63 -104 -51 -2 c-28 -1 -65 -5 -83 -8 -63 -13 -120 -7 -138 16 -19
23 -14 49 20 117 12 22 18 43 15 47 -4 3 -1 6 5 6 6 0 21 18 32 40 22 44 261
445 327 550 23 36 43 71 45 79 2 11 -28 13 -167 11 -93 -1 -282 -2 -419 -3
l-249 -2 -40 -65 c-22 -36 -48 -78 -57 -95 -10 -16 -72 -122 -139 -234 -66
-111 -121 -205 -121 -207 0 -4 -97 -156 -137 -216 -20 -29 -32 -38 -54 -38
-16 0 -29 4 -29 9 0 5 -36 8 -80 8 -50 0 -85 4 -93 12 -21 21 -11 85 26 162
40 83 45 91 240 384 132 199 177 270 177 280 0 3 -36 5 -80 5 -90 0 -127 13
-159 58 -27 39 -55 143 -47 176 l7 27 87 -8 c48 -4 148 -7 222 -8 l135 0 172
255 c96 140 176 263 179 273 4 9 10 17 14 17 4 0 15 16 26 35 10 19 21 35 24
35 3 0 11 9 18 21 14 23 5 20 -28 -6 -46 -38 -206 -105 -263 -110 -74 -8 -184
-5 -216 4 -134 41 -200 142 -157 244 30 73 132 127 204 108 23 -6 24 -8 8 -23
-39 -39 25 -73 139 -72 81 1 104 6 171 36 27 12 55 23 62 24 8 1 21 9 30 16
10 8 28 19 42 25 14 6 90 50 169 97 79 47 151 86 160 87 9 0 32 1 51 2 29 2
42 -5 78 -41 23 -24 42 -50 42 -58 0 -14 -19 -47 -91 -159 -57 -88 -187 -288
-198 -305 -74 -110 -321 -491 -321 -494 0 -4 558 2 720 8 l115 4 55 84 c119
183 140 216 140 226 0 6 4 12 8 14 4 2 27 35 51 73 24 39 63 99 86 135 23 36
90 139 148 230 143 223 133 215 265 213 l105 -2 -75 72 c-187 181 -356 322
-525 440 -29 20 -75 53 -103 72 -27 19 -51 35 -54 35 -2 0 -36 22 -77 49 -100
66 -446 255 -469 256 -3 0 -12 5 -20 10 -20 13 -189 86 -313 136 -241 97 -536
184 -692 205 -22 3 -46 7 -53 9 -7 3 -40 7 -75 10 -34 4 -68 8 -76 11 -20 7
-455 17 -461 11z"/>
<path d="M515 9015 c-78 -17 -191 -60 -236 -89 -87 -58 -203 -215 -198 -270 0
-5 -4 -12 -9 -15 -6 -3 -20 -42 -31 -86 -77 -293 -26 -668 141 -1035 87 -190
267 -387 557 -609 86 -66 143 -107 190 -136 9 -5 18 -13 21 -16 17 -19 221
-137 332 -192 243 -120 389 -159 588 -160 236 0 415 68 582 221 32 30 138 172
138 185 0 2 10 26 22 53 12 27 23 54 24 61 1 6 7 27 13 45 48 154 43 368 -15
555 -23 75 -134 310 -153 323 -4 3 -24 30 -44 60 -19 30 -44 64 -54 75 -10 11
-36 43 -58 70 -49 62 -255 268 -352 354 -388 340 -609 471 -978 580 -16 5 -50
13 -75 16 -25 4 -54 9 -65 12 -51 12 -284 10 -340 -2z"/>
<path d="M16780 8495 c-64 -17 -84 -29 -123 -77 -92 -113 -329 -518 -617
-1053 -56 -104 -152 -289 -212 -411 l-111 -221 -72 -53 c-165 -122 -291 -176
-484 -210 -85 -15 -208 -15 -246 -1 -123 49 -142 204 -47 385 27 52 64 98 137
171 94 94 268 225 300 225 7 0 16 4 19 9 8 13 79 27 116 22 19 -2 10 -33 -24
-84 -44 -66 -56 -99 -49 -128 11 -39 43 -58 94 -55 54 2 104 35 150 99 114
157 109 281 -16 342 -45 22 -65 26 -126 24 -123 -4 -225 -31 -350 -95 -230
-115 -410 -312 -499 -545 -11 -30 -20 -61 -20 -69 0 -18 -171 -155 -290 -232
-105 -68 -182 -97 -269 -102 -125 -6 -211 36 -211 103 0 53 214 210 369 271
87 34 138 83 126 121 -4 11 -20 35 -36 53 -34 39 -51 39 -174 3 -79 -24 -125
-25 -125 -3 0 20 60 78 138 134 74 54 193 122 212 122 5 0 10 -14 10 -31 0
-54 14 -67 67 -64 116 6 217 93 238 206 10 56 -7 85 -66 107 -106 39 -292 1
-497 -102 -204 -102 -327 -252 -316 -385 6 -86 14 -109 46 -136 17 -14 29 -27
27 -29 -2 -2 -29 -15 -60 -29 -30 -14 -81 -48 -112 -77 -69 -63 -96 -125 -91
-213 6 -107 68 -178 198 -226 69 -26 221 -35 301 -20 28 6 61 13 75 15 80 16
234 95 345 176 33 24 66 47 72 51 8 5 19 -7 33 -35 26 -53 55 -87 111 -127
118 -86 252 -105 433 -62 133 32 195 54 353 127 l72 33 -24 -56 c-35 -78 -33
-88 21 -107 67 -23 109 -3 176 83 44 56 200 241 233 277 5 6 42 47 80 90 126
142 187 207 338 358 81 81 150 146 153 144 2 -3 -8 -26 -23 -53 -62 -105 -78
-136 -153 -285 -145 -290 -178 -421 -130 -523 48 -101 172 -133 358 -93 85 19
122 36 217 104 90 65 101 75 283 254 145 144 152 153 152 191 0 33 -6 46 -36
73 -33 32 -43 37 -79 37 -34 0 -43 -5 -85 -44 -25 -22 -63 -56 -85 -75 -22
-20 -85 -79 -140 -133 -179 -175 -286 -239 -329 -196 -38 38 -11 108 199 534
85 173 158 329 161 348 14 76 -39 122 -148 129 -51 2 -67 -2 -123 -30 -35 -19
-99 -60 -142 -92 -78 -58 -373 -346 -373 -364 0 -6 -4 -10 -9 -10 -9 0 114
241 170 333 16 26 29 49 29 52 0 11 273 461 438 722 104 164 194 308 200 320
11 21 10 78 -1 89 -11 11 -83 11 -127 -1z"/>
<path d="M14121 8434 c-83 -28 -167 -74 -250 -138 -44 -34 -70 -46 -121 -55
-36 -6 -74 -13 -85 -15 -11 -2 -42 -7 -69 -10 -27 -4 -52 -9 -55 -10 -3 -2
-35 -7 -71 -11 -36 -3 -78 -8 -95 -10 -58 -9 -261 -19 -365 -19 -183 1 -278
13 -309 40 -2 2 9 22 24 45 24 34 26 42 14 50 -21 15 -87 5 -144 -21 -93 -42
-127 -89 -127 -181 -1 -66 16 -99 65 -130 42 -25 115 -47 191 -56 80 -10 312
-9 401 1 70 7 324 57 393 75 36 10 56 6 36 -7 -23 -14 -176 -236 -354 -512
-226 -351 -471 -705 -525 -759 -20 -20 -44 1 -38 33 23 121 -229 -156 -283
-310 -18 -51 -9 -120 19 -158 47 -61 157 -73 250 -26 49 24 148 115 210 192
55 68 229 331 330 498 178 293 213 348 322 510 174 258 334 489 383 555 25 33
46 61 47 62 0 1 55 14 121 28 209 44 324 91 379 157 22 26 26 39 22 71 -6 46
-42 101 -77 118 -48 24 -158 20 -239 -7z"/>
<path d="M10743 8409 c-34 -16 -74 -31 -88 -35 -63 -16 -85 -51 -440 -689
-125 -223 -235 -428 -235 -435 0 -5 -6 -15 -13 -22 -6 -7 -25 -38 -41 -68 -16
-30 -41 -77 -56 -105 -67 -122 -95 -174 -127 -234 -18 -35 -38 -70 -44 -78 -6
-7 -9 -13 -5 -13 3 0 -8 -22 -24 -50 -73 -124 -154 -313 -145 -340 9 -27 47
-58 80 -64 17 -3 45 -10 62 -15 42 -12 43 -11 168 246 54 111 102 200 106 197
4 -2 28 -41 53 -87 86 -157 157 -245 250 -310 73 -53 102 -63 181 -66 68 -3
142 21 216 68 l45 28 16 -28 c18 -30 76 -64 123 -72 17 -2 54 2 84 10 94 24
191 93 349 249 45 45 82 81 82 79 0 -1 -20 -40 -45 -86 -25 -46 -71 -133 -102
-193 -48 -90 -74 -125 -153 -206 -243 -247 -345 -420 -335 -569 6 -84 38 -119
115 -125 126 -9 202 62 365 340 38 65 82 115 228 260 198 195 361 342 535 479
73 58 113 96 114 109 3 41 2 52 -5 103 -12 82 -38 82 -130 -3 -47 -44 -293
-264 -346 -310 -19 -16 -39 -34 -45 -39 -6 -6 -42 -37 -81 -70 -38 -33 -73
-64 -77 -70 -5 -7 -8 -6 -8 1 0 12 115 230 202 384 33 58 69 121 80 140 55 97
253 436 258 440 5 5 18 28 70 124 48 88 27 127 -74 140 -62 9 -92 -13 -161
-115 -120 -179 -243 -327 -417 -501 -192 -191 -354 -316 -379 -291 -15 15 47
147 212 450 180 330 190 363 124 420 -43 37 -84 43 -107 16 -16 -19 -40 -62
-108 -188 -24 -44 -58 -103 -76 -132 -18 -29 -45 -74 -59 -100 -14 -26 -30
-55 -35 -63 -6 -8 -48 -80 -95 -159 -61 -103 -101 -159 -142 -198 -60 -56
-141 -103 -179 -103 -75 0 -153 78 -221 218 -24 52 -43 95 -41 97 2 1 26 15
53 30 138 75 319 217 419 327 126 138 175 253 142 331 -27 66 -112 83 -178 36
-27 -20 -31 -28 -43 -88 -12 -57 -209 -237 -400 -365 l-70 -47 -9 40 c-8 39
-5 47 79 198 49 87 99 176 111 198 12 22 115 207 229 410 247 442 292 526 289
543 -1 6 -2 16 -3 22 -3 27 -38 27 -98 -1z"/>
<path d="M17702 7601 c-17 -9 -68 -51 -112 -94 l-81 -78 18 -32 c11 -17 34
-42 52 -54 30 -20 36 -21 60 -8 38 19 144 135 160 173 29 69 -32 127 -97 93z"/>
<path d="M17344 7438 c-55 -43 -70 -82 -39 -108 21 -18 20 -22 -23 -66 -160
-169 -167 -217 -46 -344 88 -92 148 -125 207 -116 46 8 140 54 207 102 48 34
50 35 79 20 46 -24 61 -20 107 29 62 65 56 81 -68 173 -32 23 -118 103 -191
176 -166 168 -179 176 -233 134z"/>
<path d="M17908 7392 c-46 -31 -168 -156 -168 -172 0 -24 62 -80 89 -80 28 0
173 137 191 181 10 24 10 33 -4 54 -9 14 -22 26 -29 26 -6 1 -22 3 -34 4 -12
1 -33 -5 -45 -13z"/>
</g>
</svg>
